<svg xmlns="http://www.w3.org/2000/svg" width="387" height="51" viewBox="0 0 387 51">
  <defs>
    <style>
      .cls-1, .cls-2 {
        stroke: #fff;
        stroke-linejoin: round;
        fill-rule: evenodd;
      }

      .cls-1 {
        stroke-width: 4px;
      }

      .cls-2 {
        stroke-width: 1px;
      }
    </style>
  </defs>
  <g id="Zeichenfläche_2" data-name="Zeichenfläche 2">
    <path id="DIVACODEDESIGN0_Kopie" data-name="DIVACODEDESIGN0 Kopie" class="cls-1" d="M432.619,602.839a15.657,15.657,0,0,0,6.633-1.367,10.358,10.358,0,0,0,4.7-4.366,15.938,15.938,0,0,0,1.734-8V567.839a15.938,15.938,0,0,0-1.734-8,10.371,10.371,0,0,0-4.7-4.367,15.687,15.687,0,0,0-6.633-1.366h-11.8a1.173,1.173,0,0,0-.867.333,1.091,1.091,0,0,0-.333.8v46.467a1.088,1.088,0,0,0,.333.8,1.169,1.169,0,0,0,.867.333h11.8Zm-10.6-46.333h10.6a10.74,10.74,0,0,1,7.833,2.766q2.834,2.767,2.834,8.567v21.267q0,5.8-2.834,8.566t-7.833,2.767h-10.6V556.506Zm34.639,46.033a1.1,1.1,0,0,0,.367-0.9v-46.4a1,1,0,0,0-.367-0.867,1.439,1.439,0,0,0-1.667,0,1,1,0,0,0-.366.867v46.4a1.1,1.1,0,0,0,.366.9A1.308,1.308,0,0,0,456.658,602.539Zm24.08,0.467a1.187,1.187,0,0,0,.5-0.7l14.333-46.734a0.456,0.456,0,0,1,.034-0.2,0.3,0.3,0,0,0,.033-0.133,0.847,0.847,0,0,0-.2-0.567,1.824,1.824,0,0,0-.5-0.4,1.3,1.3,0,0,0-.633-0.166,1.118,1.118,0,0,0-.634.2,1.134,1.134,0,0,0-.433.666l-13.267,43.2-13.333-43.2a1.087,1.087,0,0,0-.467-0.666,1.392,1.392,0,0,0-.733-0.2,1.413,1.413,0,0,0-.567.133,1.117,1.117,0,0,0-.466.367,0.945,0.945,0,0,0-.167.566,0.913,0.913,0,0,0,.067.4l14.466,46.734a1.233,1.233,0,0,0,.467.7,1.255,1.255,0,0,0,.733.233A1.413,1.413,0,0,0,480.738,603.006Zm15.253-.367a1.084,1.084,0,0,0,.467-0.667l3.333-10.933h19.867l3.4,10.933a1.081,1.081,0,0,0,1.066.867,1.279,1.279,0,0,0,.634-0.167,1.559,1.559,0,0,0,.5-0.433,0.886,0.886,0,0,0,.2-0.533,0.752,0.752,0,0,0-.067-0.334l-14.333-46.733a1.192,1.192,0,0,0-.5-0.7,1.413,1.413,0,0,0-.767-0.233,1.39,1.39,0,0,0-.733.2,1.118,1.118,0,0,0-.467.733l-14.467,46.733a1.121,1.121,0,0,0,.1.967,1.111,1.111,0,0,0,.467.367A1.366,1.366,0,0,0,495.991,602.639Zm13.8-43.867,9.133,29.867h-18.4Zm44.186,42.867a13,13,0,0,0,5.634-4.6,12.179,12.179,0,0,0,2.033-7q0-2.532-1.067-3.4a5.253,5.253,0,0,0-3.333-.867,6.508,6.508,0,0,0-2.933.6,2.435,2.435,0,0,0-1.334,2.134q-0.133,1.067-.366,2.266a7.465,7.465,0,0,1-.867,2.3,4.933,4.933,0,0,1-1.967,1.834,7.492,7.492,0,0,1-3.6.733,7.213,7.213,0,0,1-5.333-1.867q-1.868-1.865-1.867-5.8v-18.6q0-3.865,1.834-5.766a6.933,6.933,0,0,1,5.233-1.9,8.056,8.056,0,0,1,3.767.733,5.269,5.269,0,0,1,2.033,1.8,6.734,6.734,0,0,1,.9,2.167,9.38,9.38,0,0,1,.233,1.9,2.308,2.308,0,0,0,1.3,2.1,6.58,6.58,0,0,0,3.034.633,5.27,5.27,0,0,0,3.266-.833q1.067-.833,1.067-3.434a11.154,11.154,0,0,0-2.033-6.733,13.4,13.4,0,0,0-5.6-4.367,20.334,20.334,0,0,0-8.234-1.566,19.584,19.584,0,0,0-7.733,1.5,11.9,11.9,0,0,0-5.6,4.866,16.859,16.859,0,0,0-2.067,8.9v18.6a16.85,16.85,0,0,0,2.067,8.9,11.9,11.9,0,0,0,5.6,4.867,19.41,19.41,0,0,0,7.667,1.5A20.166,20.166,0,0,0,553.977,601.639Zm36.28,0.1a11.879,11.879,0,0,0,5.633-4.867,16.859,16.859,0,0,0,2.067-8.9v-18.6a16.869,16.869,0,0,0-2.067-8.9,11.888,11.888,0,0,0-5.633-4.866,20.362,20.362,0,0,0-7.967-1.5,20.047,20.047,0,0,0-7.966,1.5,11.932,11.932,0,0,0-5.567,4.866,16.859,16.859,0,0,0-2.067,8.9v18.6a16.85,16.85,0,0,0,2.067,8.9,11.9,11.9,0,0,0,5.6,4.867,20.114,20.114,0,0,0,7.933,1.5A20.362,20.362,0,0,0,590.257,601.739Zm-13.1-7.967q-1.867-1.865-1.867-5.8v-18.6q0-3.932,1.867-5.8a7.994,7.994,0,0,1,10.267,0q1.865,1.867,1.866,5.8v18.6q0,3.935-1.866,5.8A7.991,7.991,0,0,1,577.157,593.772Zm42.559,9.067a20.3,20.3,0,0,0,8-1.5,12.083,12.083,0,0,0,5.634-4.867,16.638,16.638,0,0,0,2.1-8.9v-18.2a16.647,16.647,0,0,0-2.1-8.9,12.092,12.092,0,0,0-5.634-4.866,20.3,20.3,0,0,0-8-1.5h-11.8a4.393,4.393,0,0,0-2.766.8,2.322,2.322,0,0,0-1.034,1.866v43.4a2.321,2.321,0,0,0,1.034,1.867,4.4,4.4,0,0,0,2.766.8h11.8Zm-6.933-41.133h7a6.866,6.866,0,0,1,5.133,1.9q1.866,1.9,1.867,5.766v18.2q0,3.868-1.867,5.767a6.956,6.956,0,0,1-5.2,1.9h-6.933V561.706Zm56.306,41.133a2.192,2.192,0,0,0,2.1-1.2,5.354,5.354,0,0,0,.634-2.533,5.113,5.113,0,0,0-.7-2.734,2.251,2.251,0,0,0-2.034-1.133H650.223v-13.4h10.133a2.233,2.233,0,0,0,2.1-1.1,4.429,4.429,0,0,0,.633-2.233,4.235,4.235,0,0,0-.7-2.434,2.3,2.3,0,0,0-2.033-1.033H650.223V561.706h18.866a2.248,2.248,0,0,0,2.034-1.134,5.1,5.1,0,0,0,.7-2.733,5.357,5.357,0,0,0-.634-2.533,2.192,2.192,0,0,0-2.1-1.2H645.356a5.069,5.069,0,0,0-2.6.7,2.225,2.225,0,0,0-1.2,2.033v43.267a2.225,2.225,0,0,0,1.2,2.033,5.069,5.069,0,0,0,2.6.7h23.733Zm29.894-1.033a12.922,12.922,0,0,0,5.633-4.867,14.5,14.5,0,0,0,2.067-7.967,15.594,15.594,0,0,0-1.134-6.3,12.463,12.463,0,0,0-3.066-4.3,21.7,21.7,0,0,0-4.234-2.966,50.13,50.13,0,0,0-4.566-2.167q-2.268-.933-4.167-1.867a10.943,10.943,0,0,1-3.067-2.133,4.046,4.046,0,0,1-1.166-2.933,4.332,4.332,0,0,1,.866-2.767,5.7,5.7,0,0,1,2.6-1.733,11.844,11.844,0,0,1,4.067-.634,12.585,12.585,0,0,1,4.433.634,17.048,17.048,0,0,1,2.667,1.266,3.967,3.967,0,0,0,2.1.634,2.55,2.55,0,0,0,1.967-.834,5.354,5.354,0,0,0,1.133-1.9,5.868,5.868,0,0,0,.367-1.866,3.174,3.174,0,0,0-1.367-2.634,10.5,10.5,0,0,0-3.467-1.633,25.577,25.577,0,0,0-4.2-.833,33.693,33.693,0,0,0-3.633-.234,24.111,24.111,0,0,0-5.733.7,16.489,16.489,0,0,0-5.234,2.267,11.819,11.819,0,0,0-3.8,4.1,12.566,12.566,0,0,0-1.433,6.267,12.716,12.716,0,0,0,1.167,5.733,12.2,12.2,0,0,0,3.066,3.933,20.664,20.664,0,0,0,4.2,2.734q2.3,1.134,4.567,2.133t4.2,2.067a9.791,9.791,0,0,1,3.067,2.533,5.715,5.715,0,0,1,1.133,3.6,5.007,5.007,0,0,1-1.033,3.267,6.259,6.259,0,0,1-2.734,1.9,11.7,11.7,0,0,1-7.966-.134,11.652,11.652,0,0,1-2.934-1.8q-1.2-1.032-2.133-1.8a3.1,3.1,0,0,0-2-.766,2.848,2.848,0,0,0-1.933.766,5.485,5.485,0,0,0-1.367,1.867,4.959,4.959,0,0,0-.5,2.033,5.366,5.366,0,0,0,2.033,3.834,15.951,15.951,0,0,0,5.534,3.166,22.9,22.9,0,0,0,7.833,1.267A19.433,19.433,0,0,0,698.983,601.806Zm20.325,0.333a2.2,2.2,0,0,0,1.334-2.033V556.772a2.118,2.118,0,0,0-1.334-2.033,7.345,7.345,0,0,0-5.966,0,2.115,2.115,0,0,0-1.367,2.033v43.334a2.2,2.2,0,0,0,1.367,2.033A6.706,6.706,0,0,0,719.308,602.139Zm31.16-.4a11.879,11.879,0,0,0,5.633-4.867,16.859,16.859,0,0,0,2.067-8.9v-7.933a2.969,2.969,0,0,0-.7-1.967,2.509,2.509,0,0,0-2.034-.833H744.1a2.221,2.221,0,0,0-1.966,1.067,4.233,4.233,0,0,0,0,4.666,2.219,2.219,0,0,0,1.966,1.067h5.4v3.933q0,3.869-1.866,5.767a7.885,7.885,0,0,1-10.267,0q-1.867-1.9-1.867-5.767v-18.6q0-3.865,1.867-5.766a6.864,6.864,0,0,1,5.133-1.9,7.686,7.686,0,0,1,4.367,1,5.3,5.3,0,0,1,2,2.5,9.916,9.916,0,0,1,.633,3.1,2.278,2.278,0,0,0,1.334,2.133,6.939,6.939,0,0,0,3,.6,5.27,5.27,0,0,0,3.266-.833q1.067-.833,1.067-3.3a11.435,11.435,0,0,0-2.067-6.867,13.2,13.2,0,0,0-5.633-4.4,20.7,20.7,0,0,0-8.233-1.533,19.341,19.341,0,0,0-7.7,1.5,11.932,11.932,0,0,0-5.567,4.866,16.859,16.859,0,0,0-2.067,8.9v18.6a16.85,16.85,0,0,0,2.067,8.9,11.9,11.9,0,0,0,5.6,4.867,20.114,20.114,0,0,0,7.933,1.5A20.365,20.365,0,0,0,750.468,601.739Zm20.686,0.4a2.2,2.2,0,0,0,1.334-2.033v-26.8l14.4,26.8a4.545,4.545,0,0,0,2.1,2.133,6.672,6.672,0,0,0,2.833.6,6.357,6.357,0,0,0,3-.7,2.2,2.2,0,0,0,1.333-2.033V556.772a2.118,2.118,0,0,0-1.333-2.033,7.347,7.347,0,0,0-5.967,0,2.116,2.116,0,0,0-1.366,2.033v26.8l-12.867-24.866a12.965,12.965,0,0,0-1.9-2.967,4.6,4.6,0,0,0-1.933-1.3,8.75,8.75,0,0,0-2.634-.333,6.69,6.69,0,0,0-2.966.666,2.179,2.179,0,0,0-1.367,2.067v43.267a2.2,2.2,0,0,0,1.367,2.033A6.706,6.706,0,0,0,771.154,602.139Z" transform="translate(-419 -555)"/>
    <path id="DIVACODEDESIGN0_Kopie-2" data-name="DIVACODEDESIGN0 Kopie" class="cls-2" d="M437.619,603.839a15.657,15.657,0,0,0,6.633-1.367,10.358,10.358,0,0,0,4.7-4.366,15.938,15.938,0,0,0,1.734-8V568.839a15.938,15.938,0,0,0-1.734-8,10.371,10.371,0,0,0-4.7-4.367,15.687,15.687,0,0,0-6.633-1.366h-11.8a1.173,1.173,0,0,0-.867.333,1.091,1.091,0,0,0-.333.8v46.467a1.088,1.088,0,0,0,.333.8,1.169,1.169,0,0,0,.867.333h11.8Zm-10.6-46.333h10.6a10.74,10.74,0,0,1,7.833,2.766q2.834,2.767,2.834,8.567v21.267q0,5.8-2.834,8.566t-7.833,2.767h-10.6V557.506Zm34.639,46.033a1.1,1.1,0,0,0,.367-0.9v-46.4a1,1,0,0,0-.367-0.867,1.439,1.439,0,0,0-1.667,0,1,1,0,0,0-.366.867v46.4a1.1,1.1,0,0,0,.366.9A1.308,1.308,0,0,0,461.658,603.539Zm24.08,0.467a1.187,1.187,0,0,0,.5-0.7l14.333-46.734a0.456,0.456,0,0,1,.034-0.2,0.3,0.3,0,0,0,.033-0.133,0.847,0.847,0,0,0-.2-0.567,1.824,1.824,0,0,0-.5-0.4,1.3,1.3,0,0,0-.633-0.166,1.118,1.118,0,0,0-.634.2,1.134,1.134,0,0,0-.433.666l-13.267,43.2-13.333-43.2a1.087,1.087,0,0,0-.467-0.666,1.392,1.392,0,0,0-.733-0.2,1.413,1.413,0,0,0-.567.133,1.117,1.117,0,0,0-.466.367,0.945,0.945,0,0,0-.167.566,0.913,0.913,0,0,0,.067.4l14.466,46.734a1.233,1.233,0,0,0,.467.7,1.255,1.255,0,0,0,.733.233A1.413,1.413,0,0,0,485.738,604.006Zm15.253-.367a1.084,1.084,0,0,0,.467-0.667l3.333-10.933h19.867l3.4,10.933a1.081,1.081,0,0,0,1.066.867,1.279,1.279,0,0,0,.634-0.167,1.559,1.559,0,0,0,.5-0.433,0.886,0.886,0,0,0,.2-0.533,0.752,0.752,0,0,0-.067-0.334l-14.333-46.733a1.192,1.192,0,0,0-.5-0.7,1.413,1.413,0,0,0-.767-0.233,1.39,1.39,0,0,0-.733.2,1.118,1.118,0,0,0-.467.733l-14.467,46.733a1.121,1.121,0,0,0,.1.967,1.111,1.111,0,0,0,.467.367A1.366,1.366,0,0,0,500.991,603.639Zm13.8-43.867,9.133,29.867h-18.4Zm44.186,42.867a13,13,0,0,0,5.634-4.6,12.179,12.179,0,0,0,2.033-7q0-2.532-1.067-3.4a5.253,5.253,0,0,0-3.333-.867,6.508,6.508,0,0,0-2.933.6,2.435,2.435,0,0,0-1.334,2.134q-0.133,1.067-.366,2.266a7.465,7.465,0,0,1-.867,2.3,4.933,4.933,0,0,1-1.967,1.834,7.492,7.492,0,0,1-3.6.733,7.213,7.213,0,0,1-5.333-1.867q-1.868-1.865-1.867-5.8v-18.6q0-3.865,1.834-5.766a6.933,6.933,0,0,1,5.233-1.9,8.056,8.056,0,0,1,3.767.733,5.269,5.269,0,0,1,2.033,1.8,6.734,6.734,0,0,1,.9,2.167,9.38,9.38,0,0,1,.233,1.9,2.308,2.308,0,0,0,1.3,2.1,6.58,6.58,0,0,0,3.034.633,5.27,5.27,0,0,0,3.266-.833q1.067-.833,1.067-3.434a11.154,11.154,0,0,0-2.033-6.733,13.4,13.4,0,0,0-5.6-4.367,20.334,20.334,0,0,0-8.234-1.566,19.584,19.584,0,0,0-7.733,1.5,11.9,11.9,0,0,0-5.6,4.866,16.859,16.859,0,0,0-2.067,8.9v18.6a16.85,16.85,0,0,0,2.067,8.9,11.9,11.9,0,0,0,5.6,4.867,19.41,19.41,0,0,0,7.667,1.5A20.166,20.166,0,0,0,558.977,602.639Zm36.28,0.1a11.879,11.879,0,0,0,5.633-4.867,16.859,16.859,0,0,0,2.067-8.9v-18.6a16.869,16.869,0,0,0-2.067-8.9,11.888,11.888,0,0,0-5.633-4.866,20.362,20.362,0,0,0-7.967-1.5,20.047,20.047,0,0,0-7.966,1.5,11.932,11.932,0,0,0-5.567,4.866,16.859,16.859,0,0,0-2.067,8.9v18.6a16.85,16.85,0,0,0,2.067,8.9,11.9,11.9,0,0,0,5.6,4.867,20.114,20.114,0,0,0,7.933,1.5A20.362,20.362,0,0,0,595.257,602.739Zm-13.1-7.967q-1.867-1.865-1.867-5.8v-18.6q0-3.932,1.867-5.8a7.994,7.994,0,0,1,10.267,0q1.865,1.867,1.866,5.8v18.6q0,3.935-1.866,5.8A7.991,7.991,0,0,1,582.157,594.772Zm42.559,9.067a20.3,20.3,0,0,0,8-1.5,12.083,12.083,0,0,0,5.634-4.867,16.638,16.638,0,0,0,2.1-8.9v-18.2a16.647,16.647,0,0,0-2.1-8.9,12.092,12.092,0,0,0-5.634-4.866,20.3,20.3,0,0,0-8-1.5h-11.8a4.393,4.393,0,0,0-2.766.8,2.322,2.322,0,0,0-1.034,1.866v43.4a2.321,2.321,0,0,0,1.034,1.867,4.4,4.4,0,0,0,2.766.8h11.8Zm-6.933-41.133h7a6.866,6.866,0,0,1,5.133,1.9q1.866,1.9,1.867,5.766v18.2q0,3.868-1.867,5.767a6.956,6.956,0,0,1-5.2,1.9h-6.933V562.706Zm56.306,41.133a2.192,2.192,0,0,0,2.1-1.2,5.354,5.354,0,0,0,.634-2.533,5.113,5.113,0,0,0-.7-2.734,2.251,2.251,0,0,0-2.034-1.133H655.223v-13.4h10.133a2.233,2.233,0,0,0,2.1-1.1,4.429,4.429,0,0,0,.633-2.233,4.235,4.235,0,0,0-.7-2.434,2.3,2.3,0,0,0-2.033-1.033H655.223V562.706h18.866a2.248,2.248,0,0,0,2.034-1.134,5.1,5.1,0,0,0,.7-2.733,5.357,5.357,0,0,0-.634-2.533,2.192,2.192,0,0,0-2.1-1.2H650.356a5.069,5.069,0,0,0-2.6.7,2.225,2.225,0,0,0-1.2,2.033v43.267a2.225,2.225,0,0,0,1.2,2.033,5.069,5.069,0,0,0,2.6.7h23.733Zm29.894-1.033a12.922,12.922,0,0,0,5.633-4.867,14.5,14.5,0,0,0,2.067-7.967,15.594,15.594,0,0,0-1.134-6.3,12.463,12.463,0,0,0-3.066-4.3,21.7,21.7,0,0,0-4.234-2.966,50.13,50.13,0,0,0-4.566-2.167q-2.268-.933-4.167-1.867a10.943,10.943,0,0,1-3.067-2.133,4.046,4.046,0,0,1-1.166-2.933,4.332,4.332,0,0,1,.866-2.767,5.7,5.7,0,0,1,2.6-1.733,11.844,11.844,0,0,1,4.067-.634,12.585,12.585,0,0,1,4.433.634,17.048,17.048,0,0,1,2.667,1.266,3.967,3.967,0,0,0,2.1.634,2.55,2.55,0,0,0,1.967-.834,5.354,5.354,0,0,0,1.133-1.9,5.868,5.868,0,0,0,.367-1.866,3.174,3.174,0,0,0-1.367-2.634,10.5,10.5,0,0,0-3.467-1.633,25.577,25.577,0,0,0-4.2-.833,33.693,33.693,0,0,0-3.633-.234,24.111,24.111,0,0,0-5.733.7,16.489,16.489,0,0,0-5.234,2.267,11.819,11.819,0,0,0-3.8,4.1,12.566,12.566,0,0,0-1.433,6.267,12.716,12.716,0,0,0,1.167,5.733,12.2,12.2,0,0,0,3.066,3.933,20.664,20.664,0,0,0,4.2,2.734q2.3,1.134,4.567,2.133t4.2,2.067a9.791,9.791,0,0,1,3.067,2.533,5.715,5.715,0,0,1,1.133,3.6,5.007,5.007,0,0,1-1.033,3.267,6.259,6.259,0,0,1-2.734,1.9,11.7,11.7,0,0,1-7.966-.134,11.652,11.652,0,0,1-2.934-1.8q-1.2-1.032-2.133-1.8a3.1,3.1,0,0,0-2-.766,2.848,2.848,0,0,0-1.933.766,5.485,5.485,0,0,0-1.367,1.867,4.959,4.959,0,0,0-.5,2.033,5.366,5.366,0,0,0,2.033,3.834,15.951,15.951,0,0,0,5.534,3.166,22.9,22.9,0,0,0,7.833,1.267A19.433,19.433,0,0,0,703.983,602.806Zm20.325,0.333a2.2,2.2,0,0,0,1.334-2.033V557.772a2.118,2.118,0,0,0-1.334-2.033,7.345,7.345,0,0,0-5.966,0,2.115,2.115,0,0,0-1.367,2.033v43.334a2.2,2.2,0,0,0,1.367,2.033A6.706,6.706,0,0,0,724.308,603.139Zm31.16-.4a11.879,11.879,0,0,0,5.633-4.867,16.859,16.859,0,0,0,2.067-8.9v-7.933a2.969,2.969,0,0,0-.7-1.967,2.509,2.509,0,0,0-2.034-.833H749.1a2.221,2.221,0,0,0-1.966,1.067,4.233,4.233,0,0,0,0,4.666,2.219,2.219,0,0,0,1.966,1.067h5.4v3.933q0,3.869-1.866,5.767a7.885,7.885,0,0,1-10.267,0q-1.867-1.9-1.867-5.767v-18.6q0-3.865,1.867-5.766a6.864,6.864,0,0,1,5.133-1.9,7.686,7.686,0,0,1,4.367,1,5.3,5.3,0,0,1,2,2.5,9.916,9.916,0,0,1,.633,3.1,2.278,2.278,0,0,0,1.334,2.133,6.939,6.939,0,0,0,3,.6,5.27,5.27,0,0,0,3.266-.833q1.067-.833,1.067-3.3a11.435,11.435,0,0,0-2.067-6.867,13.2,13.2,0,0,0-5.633-4.4,20.7,20.7,0,0,0-8.233-1.533,19.341,19.341,0,0,0-7.7,1.5,11.932,11.932,0,0,0-5.567,4.866,16.859,16.859,0,0,0-2.067,8.9v18.6a16.85,16.85,0,0,0,2.067,8.9,11.9,11.9,0,0,0,5.6,4.867,20.114,20.114,0,0,0,7.933,1.5A20.365,20.365,0,0,0,755.468,602.739Zm20.686,0.4a2.2,2.2,0,0,0,1.334-2.033v-26.8l14.4,26.8a4.545,4.545,0,0,0,2.1,2.133,6.672,6.672,0,0,0,2.833.6,6.357,6.357,0,0,0,3-.7,2.2,2.2,0,0,0,1.333-2.033V557.772a2.118,2.118,0,0,0-1.333-2.033,7.347,7.347,0,0,0-5.967,0,2.116,2.116,0,0,0-1.366,2.033v26.8l-12.867-24.866a12.965,12.965,0,0,0-1.9-2.967,4.6,4.6,0,0,0-1.933-1.3,8.75,8.75,0,0,0-2.634-.333,6.69,6.69,0,0,0-2.966.666,2.179,2.179,0,0,0-1.367,2.067v43.267a2.2,2.2,0,0,0,1.367,2.033A6.706,6.706,0,0,0,776.154,603.139Z" transform="translate(-419 -555)"/>
  </g>
</svg>
